<svg xmlns="http://www.w3.org/2000/svg" fill="none" viewBox="0 0 151 294">
  <path fill="url(#a)" stroke="#4D4D4D" stroke-width="5" d="M147.537 265.5c0 2.976-1.578 6.101-5.065 9.234-3.485 3.131-8.67 6.066-15.29 8.582-13.222 5.024-31.658 8.184-52.145 8.184-20.487 0-38.922-3.16-52.145-8.184-6.62-2.516-11.805-5.451-15.29-8.582-3.487-3.133-5.065-6.258-5.065-9.234s1.578-6.101 5.065-9.234c3.485-3.131 8.67-6.066 15.29-8.582 13.223-5.024 31.658-8.184 52.145-8.184 20.487 0 38.923 3.16 52.145 8.184 6.62 2.516 11.805 5.451 15.29 8.582 3.487 3.133 5.065 6.258 5.065 9.234Z"/>
  <path fill="url(#b)" stroke="#4D4D4D" stroke-width="5" d="M145.407 37.5 75 146.396 4.593 37.5h140.814Z"/>
  <path fill="url(#c)" d="m75 151 75 115H0l75-115Z"/>
  <path stroke="#4D4D4D" stroke-width="5" d="M147.5 261.5 75 155.4 2.5 262.5"/>
  <path fill="#4D4D4D" fill-opacity=".6" d="M145.037 266c0 .003-139.994-.005-139.994-.005-.002 13.002 35.988 24.226 70.494 24.005 35.994-.23 69.5-11.495 69.5-24Z"/>
  <path fill="#4D4D4D" fill-opacity=".6" d="M.037 29h150v237h-150z"/>
  <path fill="url(#d)" stroke="#4D4D4D" stroke-width="5" d="M147.537 28.5c0 2.977-1.578 6.101-5.065 9.234-3.485 3.131-8.67 6.066-15.29 8.582C113.96 51.34 95.524 54.5 75.037 54.5c-20.487 0-38.922-3.16-52.145-8.184-6.62-2.516-11.805-5.45-15.29-8.582C4.115 34.6 2.537 31.476 2.537 28.5c0-2.977 1.578-6.101 5.065-9.234 3.485-3.131 8.67-6.066 15.29-8.582C36.115 5.66 54.55 2.5 75.037 2.5c20.487 0 38.923 3.16 52.145 8.184 6.62 2.516 11.805 5.45 15.29 8.582 3.487 3.133 5.065 6.258 5.065 9.234Z"/>
  <path fill="#4D4D4D" d="M.037 30h5v237h-5zm145 0h5v237h-5z"/>
  <defs>
    <linearGradient id="a" x1=".037" x2="150.037" y1="265.5" y2="265.5" gradientUnits="userSpaceOnUse">
      <stop stop-color="#38DBBF"/>
      <stop offset="1" stop-color="#6FA7F0"/>
    </linearGradient>
    <linearGradient id="b" x1="150" x2="0" y1="93" y2="93" gradientUnits="userSpaceOnUse">
      <stop stop-color="#38DBBF"/>
      <stop offset="1" stop-color="#6FA7F0"/>
    </linearGradient>
    <linearGradient id="c" x1="0" x2="150" y1="208.5" y2="208.5" gradientUnits="userSpaceOnUse">
      <stop stop-color="#38DBBF"/>
      <stop offset="1" stop-color="#6FA7F0"/>
    </linearGradient>
    <linearGradient id="d" x1=".037" x2="150.037" y1="28.5" y2="28.5" gradientUnits="userSpaceOnUse">
      <stop stop-color="#38DBBF"/>
      <stop offset="1" stop-color="#6FA7F0"/>
    </linearGradient>
  </defs>
</svg>
