<svg xmlns="http://www.w3.org/2000/svg" fill="none" viewBox="0 0 1920 92">
  <path fill="#ECFBFF" d="M0 92.0004S292.548.0001 480 .0001s292.158 58.1747 480 92.0004h197.67C1327.33 68.4593 1498.18.0001 1635 .0001c190.68 0 285 92.0005 285 92.0005l-762.33-.0001H960L0 92.0004Z"/>
  <path fill="#ECFBFF" fill-opacity=".6" d="M89.0006.0001c187.4514 0 292.1584 58.1746 480.0004 92.0003L768 91.8155C937.221 68.1029 1107.54.0001 1244 .0001c190.68 0 285 92.0004 285 92.0004l-959.999-.0001L0 92.0005V12.5146C17.5183 4.9331 45.5945.0001 89.0006.0001Z"/>
  <path fill="#ECFBFF" fill-opacity=".6" d="M285.001 92.0004S577.549.0001 765.001.0001 1057.16 58.1748 1245 92.0005h197.67C1612.33 68.4593 1783.18.0001 1920 .0001v92.0005l-477.33-.0001H1245l-959.999-.0001Z"/>
</svg>
